<?xml version="1.0" encoding="UTF-8"?>
<svg id="Layer_1" data-name="Layer 1" xmlns="http://www.w3.org/2000/svg" viewBox="0 0 768.72 303.72">
  <defs>
    <style>
      .cls-1 {
        fill: #fff;
      }
    </style>
  </defs>
  <path class="cls-1" d="M121.18,0l12.56.99c79.48,10.37,124.75,95.95,90.81,168.64-2.97,6.36-6.89,11.12-10.08,17.02-.44.82-1.6,2.76-1.36,3.59l8.29,8.29c5.47-.95,10.51-1.77,15.3,1.72l79.66,73.61c7.12,8.86-7.67,25.4-15.73,28.9-5.59,2.42-9.85-.09-14.26-3.48-4.01-3.09-8.3-7.03-12.13-10.42-19.39-17.19-37.42-35.85-56.85-53-3.23-2.85-7.79-5.64-9.57-9.62s-.96-8.3-.56-12.51l-9.2-7.65c-11.92,9.33-24.28,17.74-38.62,22.95C91.72,253.66,17.55,213.69,2.74,143.21c-1.41-6.72-2.38-13.67-2.47-20.55,0-.41.15-1.07-.24-1.32.05-1.99-.07-4.01,0-6C2.39,51.12,52.33,2.14,116.38,0h4.8ZM112.5,20.21C39.93,23.88-3.51,105.19,33.42,167.94c36.23,61.55,123.7,65.11,164.97,6.96,47.67-67.16-4.39-158.8-85.9-154.68Z"/>
  <path class="cls-1" d="M418.68,193.77c.18,1.64.8,7.5-1.32,7.91l-43.85-1c-.22-.07-1.63-1.9-1.72-2.12-.26-.64.06-5.89.11-7.06.16-3.9.54-7.84.73-11.74.04-.89.05-1.89-.13-2.77-11.68,8.74-19.92,22.18-34.91,25.78-6.85,1.65-16.62,2.03-23.63,1.32-34.33-3.49-30.65-38.4-30.34-64.14.2-16.47,1.02-33.09-1.97-49.37-.16-.45-1.3-.53-1.79-.61-5.67-.85-11.74-1.27-17.48-1.95-.51-.06-1.05.03-1.56,0l-.1-6.5,44.81-10.69c.46.16,1.02.4,1.36.76,2.68,2.88-.05,14.36-.26,18.46-.27,5.59-.09,11.43-.22,17.05-.42,17.3-1.04,35.24.23,52.51,1.51,20.46,11.57,30.5,32.74,28.18,13.03-1.43,31.34-13.67,33.64-27.29,1.63-9.62,1.32-19.75,1.26-29.42-.08-13.61.01-27.38-2.6-40.76l-20.88-2.56.08-6.7c8.58-2.3,17.64-2.51,26.24-4.7,4.37-1.11,8.53-3.19,12.81-4.46,1.52-.45,6.43-2.04,7.26-.17.13,8.39.26,16.89.13,25.31,0,.57-.25,1.09-.26,1.66-.41,26.49-1.98,54,.01,80.34.42,5.54.54,11.35,5.64,14.75h15.95Z"/>
  <path class="cls-1" d="M497.32,69.62c12.27-.66,25.1,2.42,35.05,9.67,16.23,11.82,21.88,33.14,18.15,52.39-.29.43-6.04,1.25-7,1.39-5.8.84-12.35,1.61-18.19,1.96-20.31,1.22-41.79-2.83-61.91-.25-2.81.36-3.82.51-3.72,3.71.95,30.25,20.6,54.67,52.66,51.92,11.24-.96,16.71-4.12,26.27-9,2.99-1.53,10.16-5.48,8.23,1.52-3.5,12.71-22.74,17.75-34.14,20.07-41,8.38-75.36-14.34-78.69-56.84-1.12-14.33,1.87-33.81,9.49-46.14,11.07-17.91,32.95-29.28,53.79-30.41ZM526.64,125.9v-19.54c0-9.67-11.84-23.05-20.57-26.44-18.81-7.32-36.23,3.61-42.77,21.4-2.26,6.15-3.92,15.58-3.13,22.08.1.84.78,1.16,1.56,1.31l64.91,1.19Z"/>
  <path class="cls-1" d="M660.76,107.92l-7.64-.99c1.12-14.9-9.64-24.33-23.26-27.23-14.29-3.04-31.69-.91-35.91,15.51-3.03,11.8,3.25,20.41,13.98,24.4,15.74,5.86,45.69,7.57,56.56,20.44s6.34,34.72-4.2,46.65c-22.36,25.32-59.27,19.05-88.48,12.06-.39-.28-.32-2.16-.29-2.71.23-4.36,1.88-9.07,2.17-13.42.34-5.17-.69-10.5-.49-15.6.04-1.11.28-3.66.64-4.64,1.02-2.74,5.38-.83,7.62-1.69l.27.2c1.06,8.24-1.5,18.39,5.26,24.72,15.11,14.14,53.38,14.82,61.97-7.38,11.98-30.99-36.32-31.22-53.92-38.08-25.4-9.9-28.39-42.84-7.66-59.44,17.76-14.23,43.2-13.42,64.03-7.46,1.72.49,9.58,2.6,10.03,4.13l-.67,30.53Z"/>
  <path class="cls-1" d="M729.61,79.86h39.11l-3.6,13.19h-35.51v80.7c0,.9,3.11,7.45,3.84,8.39,3.03,3.94,11.32,4.98,15.96,4.69,5.03-.32,9.14-2.93,13.67-4.79,1.49.36,4.03,3.58,3.62,5.02-.11.38-.57.79-.86,1.08-6.58,6.56-16.74,14.32-26.28,14.98-21.58,1.49-32.03-6.62-33-28.41-.48-10.91,1.16-22.75,1.22-33.81.02-2.96-.26-5.96-.26-8.87v-38.02s-20.86,0-20.86,0c-.82-4.96.48-5.81,4.56-7.55,2.27-.97,15.77-5.53,16.27-7l.55-41.54c5.88-1.41,10.72-5.22,16.04-7.83,1.61-.79,6.66-3.42,7.94-1.45.59.91,0,1.94-.03,2.89-.29,11.19-1.13,22.38-1.67,33.59-.23,4.91-.25,9.85-.72,14.75Z"/>
</svg>