{
    "asset": {
        "version": "2.0",
        "generator": "Open Asset Import Library (assimp v5.4.0)"
    },
    "extensionsUsed": [
        "KHR_materials_volume",
        "FB_ngon_encoding"
    ],
    "accessors": [
        {
            "bufferView": 0,
            "byteOffset": 0,
            "componentType": 5126,
            "count": 55740,
            "type": "VEC3",
            "max": [
                0.15654268860816956,
                0.15267708897590637,
                0.1505562961101532
            ],
            "min": [
                -0.15654268860816956,
                0.0,
                -0.1505562961101532
            ]
        },
        {
            "bufferView": 1,
            "byteOffset": 0,
            "componentType": 5126,
            "count": 55740,
            "type": "VEC3",
            "max": [
                0.9996265172958374,
                0.9999997615814209,
                0.9999659657478333
            ],
            "min": [
                -0.9998087882995605,
                -0.9996962547302246,
                -0.999855101108551
            ]
        },
        {
            "bufferView": 2,
            "byteOffset": 0,
            "componentType": 5126,
            "count": 55740,
            "type": "VEC2",
            "max": [
                0.9999828934669495,
                0.9999651312828064
            ],
            "min": [
                0.00003224662577849813,
                0.005156874656677246
            ]
        },
        {
            "bufferView": 3,
            "byteOffset": 0,
            "componentType": 5126,
            "count": 55740,
            "type": "VEC2",
            "max": [
                0.9999828934669495,
                0.9999651312828064
            ],
            "min": [
                0.00003224662577849813,
                0.005156874656677246
            ]
        },
        {
            "bufferView": 4,
            "byteOffset": 0,
            "componentType": 5125,
            "count": 299997,
            "type": "SCALAR",
            "max": [
                55739
            ],
            "min": [
                0
            ]
        }
    ],
    "buffers": [
        {
            "byteLength": 3429588,
            "uri": "model_0.bin"
        }
    ],
    "bufferViews": [
        {
            "buffer": 0,
            "byteOffset": 0,
            "byteLength": 668880,
            "target": 34962
        },
        {
            "buffer": 0,
            "byteOffset": 668880,
            "byteLength": 668880,
            "target": 34962
        },
        {
            "buffer": 0,
            "byteOffset": 1337760,
            "byteLength": 445920,
            "target": 34962
        },
        {
            "buffer": 0,
            "byteOffset": 1783680,
            "byteLength": 445920,
            "target": 34962
        },
        {
            "buffer": 0,
            "byteOffset": 2229600,
            "byteLength": 1199988,
            "target": 34963
        }
    ],
    "images": [
        {
            "uri": "textures/image_1.png"
        },
        {
            "uri": "textures/image_0.png"
        },
        {
            "uri": "textures/image_2.png"
        },
        {
            "uri": "textures/image_3.png"
        }
    ],
    "materials": [
        {
            "name": "Mat_1",
            "pbrMetallicRoughness": {
                "baseColorTexture": {
                    "index": 0
                },
                "metallicRoughnessTexture": {
                    "index": 1
                },
                "metallicFactor": 0.0
            },
            "normalTexture": {
                "index": 2
            },
            "occlusionTexture": {
                "index": 3,
                "texCoord": 1
            }
        }
    ],
    "meshes": [
        {
            "name": "meshes[0]",
            "primitives": [
                {
                    "mode": 4,
                    "material": 0,
                    "indices": 4,
                    "attributes": {
                        "POSITION": 0,
                        "NORMAL": 1,
                        "TEXCOORD_0": 2,
                        "TEXCOORD_1": 3
                    }
                }
            ]
        }
    ],
    "nodes": [
        {
            "name": "model",
            "children": [
                1
            ]
        },
        {
            "name": "mesh_0",
            "mesh": 0
        }
    ],
    "samplers": [
        {
            "magFilter": 9729,
            "minFilter": 9987
        },
        {
            "magFilter": 9729,
            "minFilter": 9987
        },
        {
            "magFilter": 9729,
            "minFilter": 9987
        },
        {
            "magFilter": 9729,
            "minFilter": 9987
        }
    ],
    "scenes": [
        {
            "nodes": [
                0
            ]
        }
    ],
    "textures": [
        {
            "source": 0,
            "sampler": 0
        },
        {
            "source": 1,
            "sampler": 1
        },
        {
            "source": 2,
            "sampler": 2
        },
        {
            "source": 3,
            "sampler": 3
        }
    ],
    "scene": 0
}